<?xml version="1.0" encoding="utf-8"?>
<!-- Generator: Adobe Illustrator 17.0.0, SVG Export Plug-In . SVG Version: 6.00 Build 0)  -->
<!DOCTYPE svg PUBLIC "-//W3C//DTD SVG 1.1//EN" "http://www.w3.org/Graphics/SVG/1.1/DTD/svg11.dtd">
<svg version="1.1" id="Слой_1" xmlns="http://www.w3.org/2000/svg" xmlns:xlink="http://www.w3.org/1999/xlink" x="0px" y="0px"
	 width="78.194px" height="61.312px" viewBox="0 0 78.194 61.312" enable-background="new 0 0 78.194 61.312" xml:space="preserve">
<path fill="#E62342" d="M23.09,0h4.106l0.095,9.888l6.843-0.023c2.785,0,5.035,0.865,6.749,2.596
	c1.715,1.731,2.573,4.012,2.573,6.844v16.236H39.35V20.036c0-2.383-1.168-6.193-5.803-6.193l-6.35,0.066v21.632H23.09V0z"/>
<path fill="#E62342" d="M48.764,15.507c0-3.197,2.327-5.407,4.992-5.407c0,0,9.761-0.087,8.312-0.071v4.06h-6.075
	c-2.876,0-3.123,2.763-3.123,4.557v16.895h-4.106V15.507z"/>
<path fill="#E62342" d="M17.628,24.072c-1.055-1.023-2.864-1.856-5.428-2.502l-3.87-0.968c-2.864-0.723-4.295-1.927-4.295-3.611
	c0-1.117,0.48-2.014,1.44-2.69c0.96-0.676,2.226-1.015,3.8-1.015c0.048,0,0.095-0.013,0.141-0.019v0.001h8.094V9.888H9.416
	c-2.769,0-5.027,0.685-6.773,2.053C0.88,13.31,0,15.065,0,17.204C0,20.587,2.21,22.852,6.631,24l4.461,1.157
	c1.447,0.378,2.47,0.826,3.068,1.345c0.598,0.535,0.897,1.251,0.897,2.148c0,1.149-0.504,2.053-1.51,2.714
	c-1.023,0.677-2.4,1.015-4.13,1.015c-0.081,0-0.149,0.011-0.226,0.014v-0.009H0.93v3.394h8.26v-0.002
	c2.916-0.009,5.304-0.699,7.164-2.075c1.888-1.385,2.832-3.162,2.832-5.334C19.186,26.51,18.667,25.078,17.628,24.072"/>
<path fill="#E62342" d="M72.077,32.133c-1.791-0.163-2.697-1.277-2.697-3.365V13.499h5.915v-3.398H69.38V1.926h-4.107v8.175v3.398
	v15.434c0,2.439,0.488,4.185,1.463,5.239c0.991,1.039,2.635,1.558,4.932,1.558h6.526v-3.597H72.077z"/>
<path fill="#31343C" d="M1.089,45.117h6.854c2.262,0,3.76,1.012,4.495,3.036h0.06c0.456-0.952,1.131-1.697,2.024-2.232
	c0.893-0.536,1.9-0.804,3.022-0.804c1.587,0,2.853,0.476,3.796,1.429c0.952,0.953,1.428,2.223,1.428,3.811v10.955h-2.59V50.953
	c0-1.112-0.292-1.975-0.878-2.59c-0.596-0.625-1.429-0.937-2.5-0.937c-2.165,0-3.677,2.409-3.677,4.4v9.487h-2.59V50.64
	c0-0.972-0.303-1.751-0.908-2.337c-0.615-0.585-0.819-0.878-1.821-0.878c-1.072,0-4.124-0.011-4.124-0.011v13.899h-2.59V45.117z"/>
<path fill="#31343C" d="M39.321,54.003v-1.012c0-2.421-0.625-4.341-1.875-5.76c-1.25-1.408-2.947-2.113-5.091-2.113
	c-2.183,0-3.934,0.749-5.254,2.248c-1.32,1.498-1.98,3.493-1.98,5.984s0.66,4.465,1.98,5.924c1.33,1.459,3.121,2.188,5.373,2.188
	c0.022,0,0.038-0.004,0.059-0.005v0.005h3.88v-2.277h-3.88c-1.429,0-2.575-0.456-3.438-1.37c-0.863-0.913-1.295-2.133-1.295-3.662
	v-0.149H39.321z M29.185,48.645c0.823-0.833,1.866-1.25,3.126-1.25c1.27,0,2.297,0.417,3.081,1.25
	c0.794,0.834,1.205,1.93,1.235,3.29h-8.827C27.89,50.575,28.352,49.479,29.185,48.645"/>
<path fill="#31343C" d="M43.284,59.213c-1.28-1.508-1.92-3.483-1.92-5.924c0-2.431,0.64-4.405,1.92-5.924
	c1.26-1.499,2.893-2.248,4.897-2.248c2.391,0,4.098,0.918,5.12,2.754h0.06v-8.975h2.59v22.416H53.48c0,0-2.848,0.149-5.239,0.149
	C46.217,61.461,44.565,60.712,43.284,59.213 M45.309,49.032c-0.863,1.072-1.295,2.491-1.295,4.257c0,1.776,0.432,3.2,1.295,4.272
	c0.853,1.062,1.984,1.593,3.393,1.593c1.389,0,4.674-0.011,4.674-0.011v-5.854c0-1.746-0.432-3.161-1.295-4.242
	c-0.863-1.081-1.99-1.622-3.379-1.622C47.293,47.425,46.162,47.96,45.309,49.032"/>
<path fill="#31343C" d="M76.498,46.517c-1.131-0.933-2.645-1.399-4.54-1.399h-4.212v2.296h4.109
	c0.025,0.004,0.049,0.011,0.074,0.011c1.181,0,2.088,0.268,2.724,0.804c0.634,0.536,0.952,1.3,0.952,2.292v1.339l-4.496,0.268
	c-1.945,0.119-3.433,0.576-4.465,1.369c-1.032,0.784-1.548,1.866-1.548,3.245c0,1.419,0.496,2.56,1.488,3.424
	c0.992,0.863,2.302,1.295,3.93,1.295c1.121,0,5.225-0.149,5.225-0.149h2.455V50.297C78.194,48.719,77.629,47.459,76.498,46.517
	 M75.605,59.042c0,0-3.23,0.171-4.54,0.171c-1.012,0-1.816-0.223-2.411-0.67c-0.605-0.447-0.908-1.042-0.908-1.786
	c0-1.567,1.221-2.426,3.662-2.575l4.197-0.268V59.042z"/>
<rect x="59.466" y="45.266" fill="#31343C" width="2.589" height="16.046"/>
<rect x="59.466" y="40.052" fill="#31343C" width="2.592" height="2.592"/>
</svg>
