<?xml version="1.0" encoding="utf-8"?>
<!-- Generator: Adobe Illustrator 17.0.0, SVG Export Plug-In . SVG Version: 6.00 Build 0)  -->
<!DOCTYPE svg PUBLIC "-//W3C//DTD SVG 1.1//EN" "http://www.w3.org/Graphics/SVG/1.1/DTD/svg11.dtd">
<svg version="1.1" id="Слой_1" xmlns="http://www.w3.org/2000/svg" xmlns:xlink="http://www.w3.org/1999/xlink" x="0px" y="0px"
	 width="213.258px" height="35.528px" viewBox="0 0 213.258 35.528" enable-background="new 0 0 213.258 35.528"
	 xml:space="preserve">
<path fill="#31343C" d="M91.052,9.861h10.862c3.585,0,5.96,1.604,7.124,4.812h0.095c0.723-1.509,1.793-2.689,3.208-3.538
	c1.416-0.849,3.012-1.274,4.789-1.274c2.516,0,4.522,0.755,6.016,2.265c1.51,1.509,2.265,3.523,2.265,6.039v17.363h-4.105V19.109
	c0-1.762-0.464-3.13-1.392-4.105c-0.943-0.991-2.265-1.486-3.963-1.486c-3.43,0-5.827,3.817-5.827,6.974v15.036h-4.104V18.613
	c0-1.541-0.481-2.775-1.44-3.704c-0.976-0.928-1.299-1.391-2.887-1.391c-1.698,0-6.537-0.018-6.537-0.018v22.028h-4.104V9.861z"/>
<path fill="#31343C" d="M140.795,35.763c-3.57,0-6.408-1.156-8.516-3.468c-2.093-2.312-3.138-5.441-3.138-9.389
	c0-3.947,1.045-7.109,3.138-9.484c2.091-2.374,4.867-3.562,8.327-3.562c3.397,0,6.087,1.117,8.069,3.35
	c1.982,2.249,2.971,5.293,2.971,9.13v1.604h-18.258v0.236c0,2.422,0.684,4.357,2.052,5.803c1.369,1.448,3.185,2.171,5.45,2.171
	C142.477,32.154,143.516,35.763,140.795,35.763 M135.581,15.451c-1.32,1.321-2.052,3.059-2.193,5.214h13.989
	c-0.047-2.155-0.699-3.893-1.958-5.214c-1.242-1.321-2.87-1.981-4.883-1.981C138.538,13.47,136.887,14.13,135.581,15.451
	 M147.038,35.763h-6.148v-3.609h6.148V35.763z"/>
<path fill="#31343C" d="M157.928,32.201c-2.028-2.39-3.043-5.52-3.043-9.389c0-3.853,1.015-6.983,3.043-9.389
	c1.997-2.375,4.585-3.563,7.762-3.563c3.79,0,6.495,1.455,8.115,4.365h0.095V0h4.104v35.527h-3.916c0,0-4.513,0.236-8.305,0.236
	C162.575,35.763,159.957,34.576,157.928,32.201 M161.137,16.065c-1.368,1.698-2.053,3.948-2.053,6.747
	c0,2.816,0.685,5.072,2.053,6.77c1.353,1.684,3.145,2.525,5.378,2.525c2.202,0,7.408-0.017,7.408-0.017v-9.278
	c0-2.768-0.684-5.009-2.053-6.724c-1.368-1.713-3.153-2.571-5.355-2.571C164.282,13.517,162.49,14.367,161.137,16.065"/>
<rect x="183.575" y="10.096" fill="#31343C" width="4.104" height="25.431"/>
<path fill="#31343C" d="M194.858,33.712c-1.573-1.369-2.359-3.177-2.359-5.427c0-2.186,0.817-3.9,2.453-5.142
	c1.636-1.258,3.995-1.982,7.078-2.17l7.124-0.426v-2.122c0-1.573-0.504-2.785-1.51-3.633c-1.007-0.85-2.445-1.274-4.317-1.274
	c-1.479,0-2.627-3.657,0.047-3.657c3.004,0,5.403,0.739,7.196,2.218c1.793,1.494,2.688,3.491,2.688,5.992v17.457h-3.891
	c0,0-6.504,0.236-8.281,0.236C198.507,35.764,196.43,35.079,194.858,33.712 M209.154,31.931v-8.128l-6.653,0.425
	c-3.868,0.235-5.803,1.597-5.803,4.081c0,1.18,0.479,2.123,1.439,2.831c0.944,0.708,2.217,1.062,3.822,1.062
	C204.035,32.202,209.154,31.931,209.154,31.931"/>
<rect x="196.697" y="9.86" fill="#31343C" width="6.677" height="3.639"/>
<rect x="183.575" y="1.832" fill="#31343C" width="4.108" height="4.108"/>
<path fill="#E62342" d="M2.642,12.172c1.746-1.368,4.003-2.052,6.771-2.052c2.579,0,1.416,3.397-0.141,3.397
	c-1.573,0-2.84,0.339-3.799,1.015c-0.96,0.676-1.439,1.572-1.439,2.689c0,1.682,1.431,2.886,4.294,3.609l3.869,0.967
	c2.562,0.646,4.372,1.479,5.425,2.501c1.039,1.007,1.557,2.438,1.557,4.293c0,2.171-0.943,3.948-2.831,5.332
	C14.477,35.307,12.071,36,9.13,36c-2.737,0-3.271-3.397,0.283-3.397c1.729,0,3.106-0.338,4.128-1.014
	c1.007-0.661,1.51-1.565,1.51-2.714c0-0.896-0.299-1.611-0.896-2.146c-0.598-0.519-1.62-0.968-3.067-1.345l-4.459-1.156
	C2.209,23.08,0,20.815,0,17.434C0,15.294,0.881,13.542,2.642,12.172"/>
<path fill="#E62342" d="M23.68,0.236h4.104l0.095,9.885l6.84-0.024c2.784,0,5.033,0.865,6.747,2.595
	c1.714,1.731,2.571,4.011,2.571,6.841v16.231h-4.104v-15.5c0-2.382-1.167-6.191-5.801-6.191l-6.348,0.066v21.625H23.68V0.236z"/>
<path fill="#E62342" d="M49.399,15.737c0-3.196,2.326-5.405,4.99-5.405c0,0,9.757-0.087,8.309-0.07v4.058h-6.072
	c-2.876,0-3.123,2.762-3.123,4.555v16.889h-4.104V15.737z"/>
<path fill="#E62342" d="M70.903,2.161v8.171h5.913v3.398h-5.913v15.263c0,2.265,1.053,3.397,3.161,3.397
	c0.707,0,0.291,3.562-0.873,3.562c-2.297,0-3.939-0.519-4.931-1.557c-0.975-1.053-1.462-2.799-1.462-5.237V13.73v-3.398V2.161
	H70.903z"/>
<rect x="9.113" y="10.12" fill="#E62342" width="8.092" height="3.379"/>
<rect x="0.631" y="32.607" fill="#E62342" width="8.257" height="3.393"/>
<rect x="73.191" y="32.357" fill="#E62342" width="6.523" height="3.595"/>
</svg>
